<mxfile host="65bd71144e">
    <diagram id="mHJauxWpjln32KEpZunO" name="Page-1">
        <mxGraphModel dx="1603" dy="856" grid="1" gridSize="10" guides="1" tooltips="1" connect="1" arrows="1" fold="1" page="1" pageScale="1" pageWidth="827" pageHeight="1169" math="0" shadow="0">
            <root>
                <mxCell id="0"/>
                <mxCell id="1" parent="0"/>
                <mxCell id="2" value="" style="rounded=0;whiteSpace=wrap;html=1;dashed=1;fillColor=none;strokeWidth=2;glass=0;sketch=0;shadow=0;" vertex="1" parent="1">
                    <mxGeometry x="39" y="280" width="750" height="360" as="geometry"/>
                </mxCell>
                <object placeholders="1" c4Name="KNOWL3DGE User" c4Type="Person" c4Description="A user of the&#10;KNOWL3DGE web app" label="&lt;b&gt;%c4Name%&lt;/b&gt;&lt;div&gt;[%c4Type%]&lt;/div&gt;&lt;br&gt;&lt;div&gt;%c4Description%&lt;/div&gt;" id="3">
                    <mxCell style="html=1;dashed=0;whitespace=wrap;fillColor=#08427b;strokeColor=none;fontColor=#ffffff;shape=mxgraph.c4.person;align=center;metaEdit=1;points=[[0.5,0,0],[1,0.5,0],[1,0.75,0],[0.75,1,0],[0.5,1,0],[0.25,1,0],[0,0.75,0],[0,0.5,0]];metaData={&quot;c4Type&quot;:{&quot;editable&quot;:false}};rounded=0;shadow=0;glass=0;sketch=0;" vertex="1" parent="1">
                        <mxGeometry x="343" y="50" width="140.5" height="140" as="geometry"/>
                    </mxCell>
                </object>
                <object placeholders="1" c4Name="API Application" c4Type="Container" c4Technology="Kotlin &amp; Spring Boot" c4Description="Provides data and functionality via REST API (HTTPS/json)" label="&lt;b&gt;%c4Name%&lt;/b&gt;&lt;div&gt;[%c4Type%: %c4Technology%]&lt;/div&gt;&lt;br&gt;&lt;div&gt;%c4Description%&lt;/div&gt;" id="6">
                    <mxCell style="rounded=1;whiteSpace=wrap;html=1;labelBackgroundColor=none;fillColor=#438DD5;fontColor=#ffffff;align=center;arcSize=10;strokeColor=#3C7FC0;metaEdit=1;metaData={&quot;c4Type&quot;:{&quot;editable&quot;:false}};points=[[0.25,0,0],[0.5,0,0],[0.75,0,0],[1,0.25,0],[1,0.5,0],[1,0.75,0],[0.75,1,0],[0.5,1,0],[0.25,1,0],[0,0.75,0],[0,0.5,0],[0,0.25,0]];shadow=0;glass=0;dashed=1;sketch=0;" vertex="1" parent="1">
                        <mxGeometry x="600" y="485" width="160" height="110.00000000000001" as="geometry"/>
                    </mxCell>
                </object>
                <object placeholders="1" c4Type="Database" c4Technology="MYSQL" c4Description="Stores user and article data" label="%c4Type%&lt;div&gt;[Container:&amp;nbsp;%c4Technology%]&lt;/div&gt;&lt;br&gt;&lt;div&gt;%c4Description%&lt;/div&gt;" id="7">
                    <mxCell style="shape=cylinder;whiteSpace=wrap;html=1;boundedLbl=1;rounded=0;labelBackgroundColor=none;fillColor=#438DD5;fontSize=12;fontColor=#ffffff;align=center;strokeColor=#3C7FC0;metaEdit=1;points=[[0.5,0,0],[1,0.25,0],[1,0.5,0],[1,0.75,0],[0.5,1,0],[0,0.75,0],[0,0.5,0],[0,0.25,0]];metaData={&quot;c4Type&quot;:{&quot;editable&quot;:false}};shadow=0;glass=0;dashed=1;sketch=0;" vertex="1" parent="1">
                        <mxGeometry x="60" y="470" width="160" height="140" as="geometry"/>
                    </mxCell>
                </object>
                <object placeholders="1" c4Name="Single-Page Application" c4Type="Container" c4Technology="JavaScript &amp; TBD" c4Description="Provides all functionality of KNOWL3DGE to the user via their web browser" label="&lt;b&gt;%c4Name%&lt;/b&gt;&lt;div&gt;[%c4Type%: %c4Technology%]&lt;/div&gt;&lt;br&gt;&lt;div&gt;%c4Description%&lt;/div&gt;" id="8">
                    <mxCell style="rounded=1;whiteSpace=wrap;html=1;labelBackgroundColor=none;fillColor=#438DD5;fontColor=#ffffff;align=center;arcSize=10;strokeColor=#3C7FC0;metaEdit=1;metaData={&quot;c4Type&quot;:{&quot;editable&quot;:false}};points=[[0.25,0,0],[0.5,0,0],[0.75,0,0],[1,0.25,0],[1,0.5,0],[1,0.75,0],[0.75,1,0],[0.5,1,0],[0.25,1,0],[0,0.75,0],[0,0.5,0],[0,0.25,0]];shadow=0;glass=0;dashed=1;sketch=0;" vertex="1" parent="1">
                        <mxGeometry x="334" y="300" width="160" height="110.00000000000001" as="geometry"/>
                    </mxCell>
                </object>
                <object placeholders="1" c4Type="Relationship" c4Technology="SQL" c4Description="Reads from and writes to" label="&lt;div style=&quot;text-align: left&quot;&gt;&lt;div style=&quot;text-align: center&quot;&gt;&lt;b&gt;%c4Description%&lt;/b&gt;&lt;/div&gt;&lt;div style=&quot;text-align: center&quot;&gt;[%c4Technology%]&lt;/div&gt;&lt;/div&gt;" id="10">
                    <mxCell style="edgeStyle=none;rounded=0;html=1;entryX=1;entryY=0.5;jettySize=auto;orthogonalLoop=1;strokeColor=#707070;strokeWidth=2;fontColor=#707070;jumpStyle=none;dashed=1;metaEdit=1;metaData={&quot;c4Type&quot;:{&quot;editable&quot;:false}};exitX=0;exitY=0.5;exitDx=0;exitDy=0;exitPerimeter=0;entryDx=0;entryDy=0;entryPerimeter=0;" edge="1" parent="1" source="6" target="7">
                        <mxGeometry width="160" relative="1" as="geometry">
                            <mxPoint x="323.5" y="520" as="sourcePoint"/>
                            <mxPoint x="483.5" y="520" as="targetPoint"/>
                        </mxGeometry>
                    </mxCell>
                </object>
                <object placeholders="1" c4Type="Relationship" c4Technology="json/HTTPS" c4Description="Makes API calls to" label="&lt;div style=&quot;text-align: left&quot;&gt;&lt;div style=&quot;text-align: center&quot;&gt;&lt;b&gt;%c4Description%&lt;/b&gt;&lt;/div&gt;&lt;div style=&quot;text-align: center&quot;&gt;[%c4Technology%]&lt;/div&gt;&lt;/div&gt;" id="12">
                    <mxCell style="edgeStyle=none;rounded=0;html=1;entryX=0.5;entryY=0;jettySize=auto;orthogonalLoop=1;strokeColor=#707070;strokeWidth=2;fontColor=#707070;jumpStyle=none;dashed=1;metaEdit=1;metaData={&quot;c4Type&quot;:{&quot;editable&quot;:false}};exitX=1;exitY=0.5;exitDx=0;exitDy=0;exitPerimeter=0;entryDx=0;entryDy=0;entryPerimeter=0;" edge="1" parent="1" source="8" target="6">
                        <mxGeometry width="160" relative="1" as="geometry">
                            <mxPoint x="540" y="440" as="sourcePoint"/>
                            <mxPoint x="700" y="440" as="targetPoint"/>
                        </mxGeometry>
                    </mxCell>
                </object>
                <object placeholders="1" c4Type="Relationship" c4Technology="" c4Description="Views and interacts with articles and account using" label="&lt;div style=&quot;text-align: left&quot;&gt;&lt;div style=&quot;text-align: center&quot;&gt;&lt;b&gt;%c4Description%&lt;/b&gt;&lt;/div&gt;&lt;div style=&quot;text-align: center&quot;&gt;[%c4Technology%]&lt;/div&gt;&lt;/div&gt;" id="13">
                    <mxCell style="edgeStyle=none;rounded=0;html=1;entryX=0.5;entryY=0;jettySize=auto;orthogonalLoop=1;strokeColor=#707070;strokeWidth=2;fontColor=#707070;jumpStyle=none;dashed=1;metaEdit=1;metaData={&quot;c4Type&quot;:{&quot;editable&quot;:false}};exitX=0.5;exitY=1;exitDx=0;exitDy=0;exitPerimeter=0;entryDx=0;entryDy=0;entryPerimeter=0;" edge="1" parent="1" source="3" target="8">
                        <mxGeometry width="160" relative="1" as="geometry">
                            <mxPoint x="530" y="370" as="sourcePoint"/>
                            <mxPoint x="690" y="370" as="targetPoint"/>
                        </mxGeometry>
                    </mxCell>
                </object>
                <mxCell id="14" value="KNOWL3DGE System" style="text;html=1;strokeColor=none;fillColor=none;align=center;verticalAlign=middle;whiteSpace=wrap;rounded=0;shadow=0;glass=0;dashed=1;sketch=0;" vertex="1" parent="1">
                    <mxGeometry x="39" y="620" width="131" height="20" as="geometry"/>
                </mxCell>
            </root>
        </mxGraphModel>
    </diagram>
</mxfile>